<svg width="506" height="597" viewBox="0 0 506 597" fill="none" xmlns="http://www.w3.org/2000/svg">
<g clip-path="url(#clip0_4_82)">
<path d="M359.466 500.945L364.466 596.945C364.466 596.945 152.972 395.651 126.624 336.754C100.275 277.858 149.872 132.167 149.872 132.167L259.916 192.613L359.466 500.945Z" fill="#9F616A"/>
<path d="M35.1793 91.8691L2.63129 94.9689C2.63129 94.9689 -14.4177 132.167 38.2791 135.266L35.1793 91.8691Z" fill="#9F616A"/>
<path d="M35.1793 149.216L2.63129 152.315C2.63129 152.315 -14.4177 189.513 38.2791 192.613L35.1793 149.216Z" fill="#9F616A"/>
<path d="M35.1793 211.212L2.63129 214.312C2.63129 214.312 -14.4177 251.509 38.2791 254.609L35.1793 211.212Z" fill="#9F616A"/>
<path d="M44.4787 273.208L11.9307 276.308C11.9307 276.308 -5.11828 313.506 47.5786 316.605L44.4787 273.208Z" fill="#9F616A"/>
<path d="M19.3336 106.813H21.8032V39.1572C21.8032 34.015 22.816 28.9232 24.7839 24.1724C26.7517 19.4217 29.636 15.105 33.2721 11.4689C36.9081 7.83282 41.2248 4.94852 45.9756 2.98068C50.7263 1.01284 55.8182 3.93973e-06 60.9604 0H204.298C209.44 -1.05057e-05 214.532 1.01281 219.283 2.98064C224.033 4.94846 228.35 7.83275 231.986 11.4688C235.622 15.1049 238.507 19.4215 240.474 24.1723C242.442 28.9231 243.455 34.0149 243.455 39.1571V410.321C243.455 415.463 242.442 420.555 240.475 425.306C238.507 430.056 235.622 434.373 231.986 438.009C228.35 441.645 224.034 444.53 219.283 446.497C214.532 448.465 209.44 449.478 204.298 449.478H60.9606C50.5754 449.478 40.6156 445.353 33.2722 438.009C25.9288 430.666 21.8033 420.706 21.8033 410.321V154.971H19.3336V106.813Z" fill="#3F3D56"/>
<path d="M59.3805 10.1873H78.0908C77.2303 12.2969 76.9019 14.5856 77.1344 16.8519C77.3668 19.1183 78.1531 21.2927 79.4239 23.1836C80.6947 25.0745 82.4109 26.6239 84.4216 27.6952C86.4322 28.7666 88.6754 29.327 90.9537 29.3272H173.07C175.348 29.327 177.591 28.7666 179.602 27.6952C181.613 26.6239 183.329 25.0745 184.6 23.1836C185.871 21.2927 186.657 19.1183 186.889 16.8519C187.122 14.5856 186.793 12.2968 185.933 10.1873H203.408C211.164 10.1873 218.602 13.2682 224.086 18.7521C229.57 24.2361 232.65 31.6739 232.65 39.4294V410.049C232.65 413.889 231.894 417.691 230.424 421.239C228.955 424.787 226.801 428.011 224.086 430.726C221.37 433.441 218.147 435.595 214.599 437.065C211.051 438.534 207.248 439.291 203.408 439.291H59.3805C55.5404 439.291 51.7378 438.534 48.19 437.065C44.6422 435.595 41.4185 433.441 38.7032 430.726C35.9878 428.011 33.8338 424.787 32.3642 421.239C30.8947 417.691 30.1383 413.889 30.1383 410.049V39.4295C30.1383 35.5893 30.8947 31.7868 32.3642 28.239C33.8338 24.6912 35.9878 21.4675 38.7032 18.7522C41.4185 16.0368 44.6422 13.8828 48.19 12.4133C51.7378 10.9437 55.5404 10.1873 59.3805 10.1873Z" fill="white"/>
<path d="M162.252 114.016H100.537V128.909H162.252V114.016Z" fill="#00BF0A"/>
<path d="M165.19 178.009H97.5986V192.901H165.19V178.009Z" fill="#E5E5E5"/>
<path d="M206.823 210H55.9653V224.892H206.823V210Z" fill="#E5E5E5"/>
<path d="M206.823 241.99H55.9653V256.883H206.823V241.99Z" fill="#E5E5E5"/>
<path d="M505.466 550.945L331.986 353.028L325.787 225.936L260.691 117.443L242.092 70.9454C242.092 70.9454 198.694 75.5951 234.342 163.94L249.066 211.212C235.794 239.799 228.918 270.938 228.918 302.456V410.78C228.918 436.286 350.468 575.222 364.616 596.445L505.466 550.945Z" fill="#9F616A"/>
<path opacity="0.2" d="M247.195 126.636L260.136 120.276L259.695 119.378L247.738 125.255L229.688 77.932L228.754 78.289L247.195 126.636Z" fill="black"/>
<path opacity="0.2" d="M2.80469 94.4982L2.45898 95.4366L21.6298 102.499L21.9755 101.56L2.80469 94.4982Z" fill="black"/>
<path opacity="0.2" d="M2.80469 152.498L2.45898 153.437L21.6298 160.499L21.9755 159.56L2.80469 152.498Z" fill="black"/>
<path opacity="0.2" d="M2.80469 214.498L2.45898 215.437L21.6298 222.499L21.9755 221.56L2.80469 214.498Z" fill="black"/>
<path opacity="0.2" d="M12.8483 276.517L12.4157 277.418L21.7492 281.898L22.1818 280.996L12.8483 276.517Z" fill="black"/>
<path d="M131.471 385.405C155.346 385.405 174.701 366.051 174.701 342.175C174.701 318.3 155.346 298.945 131.471 298.945C107.596 298.945 88.2408 318.3 88.2408 342.175C88.2408 366.051 107.596 385.405 131.471 385.405Z" fill="#00BF0A"/>
<path d="M127.351 360.424L114.413 343.787L121.937 337.935L128.063 345.812L148.76 323.964L155.681 330.521L127.351 360.424Z" fill="white"/>
<path d="M130 168C154.853 168 175 149.42 175 126.5C175 103.58 154.853 85 130 85C105.147 85 85 103.58 85 126.5C85 149.42 105.147 168 130 168Z" fill="#E6E6E6"/>
<path d="M168 183H90V187H168V183Z" fill="#E6E6E6"/>
<path d="M178 197H79V202H178V197Z" fill="#E6E6E6"/>
<path d="M200 237H62V365H200V237Z" fill="#E6E6E6"/>
<path d="M208.767 388H46.2331C44.8457 387.999 43.5155 387.478 42.5344 386.553C41.5534 385.628 41.0015 384.374 41 383.066V60.9336C41.0015 59.6256 41.5534 58.3715 42.5344 57.4466C43.5155 56.5217 44.8457 56.0015 46.2331 56H208.767C210.154 56.0015 211.484 56.5217 212.466 57.4466C213.447 58.3715 213.998 59.6256 214 60.9336V383.066C213.998 384.374 213.447 385.628 212.466 386.553C211.484 387.478 210.154 387.999 208.767 388Z" fill="white"/>
<path d="M214 369H80V374H214V369Z" fill="#00BF0A"/>
<path d="M65.6693 387.694L62.9194 56L38 56.2518L40.75 387.946L65.6693 387.694Z" fill="#00BF0A"/>
<path d="M137 160C157.987 160 175 141.196 175 118C175 94.804 157.987 76 137 76C116.013 76 99 94.804 99 118C99 141.196 116.013 160 137 160Z" fill="#E6E6E6"/>
<path d="M136.5 155C154.449 155 169 138.658 169 118.5C169 98.3416 154.449 82 136.5 82C118.551 82 104 98.3416 104 118.5C104 138.658 118.551 155 136.5 155Z" fill="white"/>
<path d="M136.5 97C132.841 97 129.264 98.2316 126.222 100.539C123.18 102.847 120.808 106.126 119.408 109.964C118.008 113.801 117.642 118.023 118.355 122.097C119.069 126.17 120.831 129.912 123.419 132.849C126.006 135.786 129.302 137.786 132.891 138.596C136.479 139.407 140.199 138.991 143.58 137.401C146.96 135.812 149.849 133.12 151.882 129.667C153.915 126.214 155 122.153 155 118C155 112.43 153.051 107.089 149.581 103.151C146.112 99.2125 141.407 97 136.5 97ZM136.5 103.3C137.598 103.3 138.671 103.67 139.583 104.362C140.496 105.054 141.208 106.038 141.628 107.189C142.048 108.34 142.158 109.607 141.943 110.829C141.729 112.051 141.201 113.174 140.425 114.055C139.648 114.936 138.659 115.536 137.583 115.779C136.506 116.022 135.39 115.898 134.376 115.421C133.362 114.944 132.495 114.136 131.885 113.1C131.275 112.064 130.95 110.846 130.95 109.6C130.95 108.773 131.093 107.954 131.372 107.189C131.651 106.425 132.06 105.73 132.575 105.145C133.091 104.56 133.703 104.096 134.376 103.78C135.049 103.463 135.771 103.3 136.5 103.3ZM136.5 133.629C134.308 133.617 132.151 132.999 130.216 131.827C128.282 130.656 126.629 128.966 125.4 126.905C125.489 122.705 132.8 120.392 136.5 120.392C140.2 120.392 147.511 122.705 147.6 126.905C146.37 128.965 144.717 130.654 142.783 131.825C140.849 132.997 138.692 133.617 136.5 133.631V133.629Z" fill="#00BF0A"/>
<path d="M167 175H103V181H167V175Z" fill="#E6E6E6"/>
<path d="M176 189H94V194H176V189Z" fill="#E6E6E6"/>
<path d="M194 230H79V360H194V230Z" fill="#E6E6E6"/>
<path d="M192 231H79V360H192V231Z" fill="white"/>
<g clip-path="url(#clip1_4_82)">
<path d="M181 239H94V330H181V239Z" fill="white"/>
<path d="M151.09 245.276H148V248.508H151.09V245.276Z" fill="black"/>
<path d="M130.09 248.414H127V251.646H130.09V248.414Z" fill="black"/>
<path d="M142.09 248.414H139V251.646H142.09V248.414Z" fill="black"/>
<path d="M148.09 248.414H145V251.646H148.09V248.414Z" fill="black"/>
<path d="M127.09 251.552H124V254.784H127.09V251.552Z" fill="black"/>
<path d="M136.09 251.552H133V254.784H136.09V251.552Z" fill="black"/>
<path d="M139.09 251.552H136V254.784H139.09V251.552Z" fill="black"/>
<path d="M145.09 251.552H142V254.784H145.09V251.552Z" fill="black"/>
<path d="M151.09 251.552H148V254.784H151.09V251.552Z" fill="black"/>
<path d="M127.09 254.69H124V257.922H127.09V254.69Z" fill="black"/>
<path d="M130.09 254.69H127V257.922H130.09V254.69Z" fill="black"/>
<path d="M139.09 254.69H136V257.922H139.09V254.69Z" fill="black"/>
<path d="M142.09 254.69H139V257.922H142.09V254.69Z" fill="black"/>
<path d="M145.09 254.69H142V257.922H145.09V254.69Z" fill="black"/>
<path d="M127.09 257.828H124V261.06H127.09V257.828Z" fill="black"/>
<path d="M136.09 257.828H133V261.06H136.09V257.828Z" fill="black"/>
<path d="M142.09 257.828H139V261.06H142.09V257.828Z" fill="black"/>
<path d="M127.09 260.966H124V264.198H127.09V260.966Z" fill="black"/>
<path d="M130.09 260.966H127V264.198H130.09V260.966Z" fill="black"/>
<path d="M142.09 260.966H139V264.198H142.09V260.966Z" fill="black"/>
<path d="M145.09 260.966H142V264.198H145.09V260.966Z" fill="black"/>
<path d="M148.09 260.966H145V264.198H148.09V260.966Z" fill="black"/>
<path d="M127.09 264.103H124V267.335H127.09V264.103Z" fill="black"/>
<path d="M133.09 264.103H130V267.335H133.09V264.103Z" fill="black"/>
<path d="M139.09 264.103H136V267.335H139.09V264.103Z" fill="black"/>
<path d="M145.09 264.103H142V267.335H145.09V264.103Z" fill="black"/>
<path d="M151.09 264.103H148V267.335H151.09V264.103Z" fill="black"/>
<path d="M127.09 267.241H124V270.473H127.09V267.241Z" fill="black"/>
<path d="M130.09 267.241H127V270.473H130.09V267.241Z" fill="black"/>
<path d="M133.09 267.241H130V270.473H133.09V267.241Z" fill="black"/>
<path d="M145.09 267.241H142V270.473H145.09V267.241Z" fill="black"/>
<path d="M148.09 267.241H145V270.473H148.09V267.241Z" fill="black"/>
<path d="M151.09 267.241H148V270.473H151.09V267.241Z" fill="black"/>
<path d="M103.09 270.379H100V273.611H103.09V270.379Z" fill="black"/>
<path d="M109.09 270.379H106V273.611H109.09V270.379Z" fill="black"/>
<path d="M112.09 270.379H109V273.611H112.09V270.379Z" fill="black"/>
<path d="M115.09 270.379H112V273.611H115.09V270.379Z" fill="black"/>
<path d="M118.09 270.379H115V273.611H118.09V270.379Z" fill="black"/>
<path d="M121.09 270.379H118V273.611H121.09V270.379Z" fill="black"/>
<path d="M130.09 270.379H127V273.611H130.09V270.379Z" fill="black"/>
<path d="M139.09 270.379H136V273.611H139.09V270.379Z" fill="black"/>
<path d="M142.09 270.379H139V273.611H142.09V270.379Z" fill="black"/>
<path d="M145.09 270.379H142V273.611H145.09V270.379Z" fill="black"/>
<path d="M148.09 270.379H145V273.611H148.09V270.379Z" fill="black"/>
<path d="M151.09 270.379H148V273.611H151.09V270.379Z" fill="black"/>
<path d="M157.09 270.379H154V273.611H157.09V270.379Z" fill="black"/>
<path d="M160.09 270.379H157V273.611H160.09V270.379Z" fill="black"/>
<path d="M163.09 270.379H160V273.611H163.09V270.379Z" fill="black"/>
<path d="M166.09 270.379H163V273.611H166.09V270.379Z" fill="black"/>
<path d="M169.09 270.379H166V273.611H169.09V270.379Z" fill="black"/>
<path d="M103.09 273.517H100V276.749H103.09V273.517Z" fill="black"/>
<path d="M106.09 273.517H103V276.749H106.09V273.517Z" fill="black"/>
<path d="M115.09 273.517H112V276.749H115.09V273.517Z" fill="black"/>
<path d="M118.09 273.517H115V276.749H118.09V273.517Z" fill="black"/>
<path d="M124.09 273.517H121V276.749H124.09V273.517Z" fill="black"/>
<path d="M127.09 273.517H124V276.749H127.09V273.517Z" fill="black"/>
<path d="M133.09 273.517H130V276.749H133.09V273.517Z" fill="black"/>
<path d="M139.09 273.517H136V276.749H139.09V273.517Z" fill="black"/>
<path d="M142.09 273.517H139V276.749H142.09V273.517Z" fill="black"/>
<path d="M151.09 273.517H148V276.749H151.09V273.517Z" fill="black"/>
<path d="M154.09 273.517H151V276.749H154.09V273.517Z" fill="black"/>
<path d="M160.09 273.517H157V276.749H160.09V273.517Z" fill="black"/>
<path d="M172.09 273.517H169V276.749H172.09V273.517Z" fill="black"/>
<path d="M103.09 276.655H100V279.887H103.09V276.655Z" fill="black"/>
<path d="M121.09 276.655H118V279.887H121.09V276.655Z" fill="black"/>
<path d="M130.09 276.655H127V279.887H130.09V276.655Z" fill="black"/>
<path d="M136.09 276.655H133V279.887H136.09V276.655Z" fill="black"/>
<path d="M139.09 276.655H136V279.887H139.09V276.655Z" fill="black"/>
<path d="M145.09 276.655H142V279.887H145.09V276.655Z" fill="black"/>
<path d="M148.09 276.655H145V279.887H148.09V276.655Z" fill="black"/>
<path d="M151.09 276.655H148V279.887H151.09V276.655Z" fill="black"/>
<path d="M157.09 276.655H154V279.887H157.09V276.655Z" fill="black"/>
<path d="M160.09 276.655H157V279.887H160.09V276.655Z" fill="black"/>
<path d="M166.09 276.655H163V279.887H166.09V276.655Z" fill="black"/>
<path d="M172.09 276.655H169V279.887H172.09V276.655Z" fill="black"/>
<path d="M175.09 276.655H172V279.887H175.09V276.655Z" fill="black"/>
<path d="M106.09 279.793H103V283.025H106.09V279.793Z" fill="black"/>
<path d="M109.09 279.793H106V283.025H109.09V279.793Z" fill="black"/>
<path d="M112.09 279.793H109V283.025H112.09V279.793Z" fill="black"/>
<path d="M115.09 279.793H112V283.025H115.09V279.793Z" fill="black"/>
<path d="M124.09 279.793H121V283.025H124.09V279.793Z" fill="black"/>
<path d="M130.09 279.793H127V283.025H130.09V279.793Z" fill="black"/>
<path d="M136.09 279.793H133V283.025H136.09V279.793Z" fill="black"/>
<path d="M145.09 279.793H142V283.025H145.09V279.793Z" fill="black"/>
<path d="M148.09 279.793H145V283.025H148.09V279.793Z" fill="black"/>
<path d="M151.09 279.793H148V283.025H151.09V279.793Z" fill="black"/>
<path d="M175.09 279.793H172V283.025H175.09V279.793Z" fill="black"/>
<path d="M103.09 282.931H100V286.163H103.09V282.931Z" fill="black"/>
<path d="M106.09 282.931H103V286.163H106.09V282.931Z" fill="black"/>
<path d="M118.09 282.931H115V286.163H118.09V282.931Z" fill="black"/>
<path d="M121.09 282.931H118V286.163H121.09V282.931Z" fill="black"/>
<path d="M124.09 282.931H121V286.163H124.09V282.931Z" fill="black"/>
<path d="M130.09 282.931H127V286.163H130.09V282.931Z" fill="black"/>
<path d="M148.09 282.931H145V286.163H148.09V282.931Z" fill="black"/>
<path d="M154.09 282.931H151V286.163H154.09V282.931Z" fill="black"/>
<path d="M157.09 282.931H154V286.163H157.09V282.931Z" fill="black"/>
<path d="M160.09 282.931H157V286.163H160.09V282.931Z" fill="black"/>
<path d="M163.09 282.931H160V286.163H163.09V282.931Z" fill="black"/>
<path d="M169.09 282.931H166V286.163H169.09V282.931Z" fill="black"/>
<path d="M172.09 282.931H169V286.163H172.09V282.931Z" fill="black"/>
<path d="M175.09 282.931H172V286.163H175.09V282.931Z" fill="black"/>
<path d="M103.09 286.069H100V289.301H103.09V286.069Z" fill="black"/>
<path d="M106.09 286.069H103V289.301H106.09V286.069Z" fill="black"/>
<path d="M109.09 286.069H106V289.301H109.09V286.069Z" fill="black"/>
<path d="M115.09 286.069H112V289.301H115.09V286.069Z" fill="black"/>
<path d="M118.09 286.069H115V289.301H118.09V286.069Z" fill="black"/>
<path d="M124.09 286.069H121V289.301H124.09V286.069Z" fill="black"/>
<path d="M127.09 286.069H124V289.301H127.09V286.069Z" fill="black"/>
<path d="M139.09 286.069H136V289.301H139.09V286.069Z" fill="black"/>
<path d="M142.09 286.069H139V289.301H142.09V286.069Z" fill="black"/>
<path d="M151.09 286.069H148V289.301H151.09V286.069Z" fill="black"/>
<path d="M154.09 286.069H151V289.301H154.09V286.069Z" fill="black"/>
<path d="M160.09 286.069H157V289.301H160.09V286.069Z" fill="black"/>
<path d="M166.09 286.069H163V289.301H166.09V286.069Z" fill="black"/>
<path d="M172.09 286.069H169V289.301H172.09V286.069Z" fill="black"/>
<path d="M103.09 289.207H100V292.439H103.09V289.207Z" fill="black"/>
<path d="M112.09 289.207H109V292.439H112.09V289.207Z" fill="black"/>
<path d="M115.09 289.207H112V292.439H115.09V289.207Z" fill="black"/>
<path d="M118.09 289.207H115V292.439H118.09V289.207Z" fill="black"/>
<path d="M121.09 289.207H118V292.439H121.09V289.207Z" fill="black"/>
<path d="M130.09 289.207H127V292.439H130.09V289.207Z" fill="black"/>
<path d="M133.09 289.207H130V292.439H133.09V289.207Z" fill="black"/>
<path d="M142.09 289.207H139V292.439H142.09V289.207Z" fill="black"/>
<path d="M145.09 289.207H142V292.439H145.09V289.207Z" fill="black"/>
<path d="M148.09 289.207H145V292.439H148.09V289.207Z" fill="black"/>
<path d="M157.09 289.207H154V292.439H157.09V289.207Z" fill="black"/>
<path d="M160.09 289.207H157V292.439H160.09V289.207Z" fill="black"/>
<path d="M163.09 289.207H160V292.439H163.09V289.207Z" fill="black"/>
<path d="M166.09 289.207H163V292.439H166.09V289.207Z" fill="black"/>
<path d="M172.09 289.207H169V292.439H172.09V289.207Z" fill="black"/>
<path d="M175.09 289.207H172V292.439H175.09V289.207Z" fill="black"/>
<path d="M103.09 292.345H100V295.577H103.09V292.345Z" fill="black"/>
<path d="M109.09 292.345H106V295.577H109.09V292.345Z" fill="black"/>
<path d="M112.09 292.345H109V295.577H112.09V292.345Z" fill="black"/>
<path d="M127.09 292.345H124V295.577H127.09V292.345Z" fill="black"/>
<path d="M133.09 292.345H130V295.577H133.09V292.345Z" fill="black"/>
<path d="M139.09 292.345H136V295.577H139.09V292.345Z" fill="black"/>
<path d="M142.09 292.345H139V295.577H142.09V292.345Z" fill="black"/>
<path d="M151.09 292.345H148V295.577H151.09V292.345Z" fill="black"/>
<path d="M157.09 292.345H154V295.577H157.09V292.345Z" fill="black"/>
<path d="M160.09 292.345H157V295.577H160.09V292.345Z" fill="black"/>
<path d="M163.09 292.345H160V295.577H163.09V292.345Z" fill="black"/>
<path d="M175.09 292.345H172V295.577H175.09V292.345Z" fill="black"/>
<path d="M103.09 295.483H100V298.715H103.09V295.483Z" fill="black"/>
<path d="M115.09 295.483H112V298.715H115.09V295.483Z" fill="black"/>
<path d="M118.09 295.483H115V298.715H118.09V295.483Z" fill="black"/>
<path d="M121.09 295.483H118V298.715H121.09V295.483Z" fill="black"/>
<path d="M124.09 295.483H121V298.715H124.09V295.483Z" fill="black"/>
<path d="M127.09 295.483H124V298.715H127.09V295.483Z" fill="black"/>
<path d="M133.09 295.483H130V298.715H133.09V295.483Z" fill="black"/>
<path d="M139.09 295.483H136V298.715H139.09V295.483Z" fill="black"/>
<path d="M145.09 295.483H142V298.715H145.09V295.483Z" fill="black"/>
<path d="M151.09 295.483H148V298.715H151.09V295.483Z" fill="black"/>
<path d="M154.09 295.483H151V298.715H154.09V295.483Z" fill="black"/>
<path d="M157.09 295.483H154V298.715H157.09V295.483Z" fill="black"/>
<path d="M160.09 295.483H157V298.715H160.09V295.483Z" fill="black"/>
<path d="M163.09 295.483H160V298.715H163.09V295.483Z" fill="black"/>
<path d="M169.09 295.483H166V298.715H169.09V295.483Z" fill="black"/>
<path d="M127.09 298.621H124V301.853H127.09V298.621Z" fill="black"/>
<path d="M133.09 298.621H130V301.853H133.09V298.621Z" fill="black"/>
<path d="M148.09 298.621H145V301.853H148.09V298.621Z" fill="black"/>
<path d="M151.09 298.621H148V301.853H151.09V298.621Z" fill="black"/>
<path d="M163.09 298.621H160V301.853H163.09V298.621Z" fill="black"/>
<path d="M166.09 298.621H163V301.853H166.09V298.621Z" fill="black"/>
<path d="M130.09 301.759H127V304.991H130.09V301.759Z" fill="black"/>
<path d="M136.09 301.759H133V304.991H136.09V301.759Z" fill="black"/>
<path d="M139.09 301.759H136V304.991H139.09V301.759Z" fill="black"/>
<path d="M151.09 301.759H148V304.991H151.09V301.759Z" fill="black"/>
<path d="M157.09 301.759H154V304.991H157.09V301.759Z" fill="black"/>
<path d="M163.09 301.759H160V304.991H163.09V301.759Z" fill="black"/>
<path d="M169.09 301.759H166V304.991H169.09V301.759Z" fill="black"/>
<path d="M172.09 301.759H169V304.991H172.09V301.759Z" fill="black"/>
<path d="M175.09 301.759H172V304.991H175.09V301.759Z" fill="black"/>
<path d="M127.09 304.897H124V308.129H127.09V304.897Z" fill="black"/>
<path d="M136.09 304.897H133V308.129H136.09V304.897Z" fill="black"/>
<path d="M145.09 304.897H142V308.129H145.09V304.897Z" fill="black"/>
<path d="M151.09 304.897H148V308.129H151.09V304.897Z" fill="black"/>
<path d="M163.09 304.897H160V308.129H163.09V304.897Z" fill="black"/>
<path d="M166.09 304.897H163V308.129H166.09V304.897Z" fill="black"/>
<path d="M175.09 304.897H172V308.129H175.09V304.897Z" fill="black"/>
<path d="M127.09 308.034H124V311.267H127.09V308.034Z" fill="black"/>
<path d="M133.09 308.034H130V311.267H133.09V308.034Z" fill="black"/>
<path d="M136.09 308.034H133V311.267H136.09V308.034Z" fill="black"/>
<path d="M148.09 308.034H145V311.267H148.09V308.034Z" fill="black"/>
<path d="M151.09 308.034H148V311.267H151.09V308.034Z" fill="black"/>
<path d="M154.09 308.034H151V311.267H154.09V308.034Z" fill="black"/>
<path d="M157.09 308.034H154V311.267H157.09V308.034Z" fill="black"/>
<path d="M160.09 308.034H157V311.267H160.09V308.034Z" fill="black"/>
<path d="M163.09 308.034H160V311.267H163.09V308.034Z" fill="black"/>
<path d="M169.09 308.034H166V311.267H169.09V308.034Z" fill="black"/>
<path d="M172.09 308.034H169V311.267H172.09V308.034Z" fill="black"/>
<path d="M175.09 308.034H172V311.267H175.09V308.034Z" fill="black"/>
<path d="M127.09 311.172H124V314.404H127.09V311.172Z" fill="black"/>
<path d="M139.09 311.172H136V314.404H139.09V311.172Z" fill="black"/>
<path d="M142.09 311.172H139V314.404H142.09V311.172Z" fill="black"/>
<path d="M145.09 311.172H142V314.404H145.09V311.172Z" fill="black"/>
<path d="M154.09 311.172H151V314.404H154.09V311.172Z" fill="black"/>
<path d="M157.09 311.172H154V314.404H157.09V311.172Z" fill="black"/>
<path d="M163.09 311.172H160V314.404H163.09V311.172Z" fill="black"/>
<path d="M166.09 311.172H163V314.404H166.09V311.172Z" fill="black"/>
<path d="M169.09 311.172H166V314.404H169.09V311.172Z" fill="black"/>
<path d="M172.09 311.172H169V314.404H172.09V311.172Z" fill="black"/>
<path d="M175.09 311.172H172V314.404H175.09V311.172Z" fill="black"/>
<path d="M127.09 314.31H124V317.542H127.09V314.31Z" fill="black"/>
<path d="M130.09 314.31H127V317.542H130.09V314.31Z" fill="black"/>
<path d="M133.09 314.31H130V317.542H133.09V314.31Z" fill="black"/>
<path d="M142.09 314.31H139V317.542H142.09V314.31Z" fill="black"/>
<path d="M145.09 314.31H142V317.542H145.09V314.31Z" fill="black"/>
<path d="M148.09 314.31H145V317.542H148.09V314.31Z" fill="black"/>
<path d="M166.09 314.31H163V317.542H166.09V314.31Z" fill="black"/>
<path d="M169.09 314.31H166V317.542H169.09V314.31Z" fill="black"/>
<path d="M175.09 314.31H172V317.542H175.09V314.31Z" fill="black"/>
<path d="M139.09 317.448H136V320.68H139.09V317.448Z" fill="black"/>
<path d="M142.09 317.448H139V320.68H142.09V317.448Z" fill="black"/>
<path d="M148.09 317.448H145V320.68H148.09V317.448Z" fill="black"/>
<path d="M151.09 317.448H148V320.68H151.09V317.448Z" fill="black"/>
<path d="M154.09 317.448H151V320.68H154.09V317.448Z" fill="black"/>
<path d="M160.09 317.448H157V320.68H160.09V317.448Z" fill="black"/>
<path d="M163.09 317.448H160V320.68H163.09V317.448Z" fill="black"/>
<path d="M166.09 317.448H163V320.68H166.09V317.448Z" fill="black"/>
<path d="M175.09 317.448H172V320.68H175.09V317.448Z" fill="black"/>
<path d="M127.09 320.586H124V323.818H127.09V320.586Z" fill="black"/>
<path d="M139.09 320.586H136V323.818H139.09V320.586Z" fill="black"/>
<path d="M145.09 320.586H142V323.818H145.09V320.586Z" fill="black"/>
<path d="M157.09 320.586H154V323.818H157.09V320.586Z" fill="black"/>
<path d="M160.09 320.586H157V323.818H160.09V320.586Z" fill="black"/>
<path d="M163.09 320.586H160V323.818H163.09V320.586Z" fill="black"/>
<path d="M166.09 320.586H163V323.818H166.09V320.586Z" fill="black"/>
<path d="M169.09 320.586H166V323.818H169.09V320.586Z" fill="black"/>
<path d="M172.09 320.586H169V323.818H172.09V320.586Z" fill="black"/>
<path d="M175.09 320.586H172V323.818H175.09V320.586Z" fill="black"/>
<path d="M100 245.276V267.241H121V245.276H100ZM118 264.103H103V248.414H118V264.103Z" fill="black"/>
<path d="M154 245.276V267.241H175V245.276H154ZM172 264.103H157V248.414H172V264.103Z" fill="black"/>
<path d="M100 301.759V323.724H121V301.759H100ZM118 320.586H103V304.897H118V320.586Z" fill="black"/>
<path d="M115 251.552H106V260.965H115V251.552Z" fill="black"/>
<path d="M169 251.552H160V260.965H169V251.552Z" fill="black"/>
<path d="M115 308.034H106V317.448H115V308.034Z" fill="black"/>
</g>
</g>
<defs>
<clipPath id="clip0_4_82">
<rect width="505.466" height="596.945" fill="white"/>
</clipPath>
<clipPath id="clip1_4_82">
<rect width="87" height="91" fill="white" transform="translate(94 239)"/>
</clipPath>
</defs>
</svg>
