<svg width="931" height="522" viewBox="0 0 931 522" fill="none" xmlns="http://www.w3.org/2000/svg">
<g clip-path="url(#clip0_12_57)">
<path d="M78.7103 429.914C86.6486 442.494 96.3195 453.893 107.438 463.776C107.692 464.007 107.953 464.229 108.214 464.457L131.952 450.352C131.777 450.113 131.583 449.846 131.375 449.553C118.981 432.297 63.0029 317.496 62.6608 292.074C62.6177 294.179 42.5154 373.19 78.7103 429.914Z" fill="#00BF0A"/>
<path d="M102.858 466.497C103.224 466.662 103.599 466.822 103.976 466.975L121.785 456.393C121.507 456.233 121.182 456.043 120.81 455.83C114.714 452.269 96.5733 441.567 78.712 429.913C59.5207 417.387 40.641 403.768 37.3649 396.725C38.0466 398.346 59.1773 447.597 102.858 466.497Z" fill="#00BF0A"/>
<path d="M855.2 476.194C854.802 491.064 852.311 505.804 847.8 519.979C847.7 520.308 847.589 520.632 847.481 520.961H819.868C819.897 520.666 819.927 520.337 819.956 519.979C821.797 498.813 811.279 371.526 798.587 349.496C799.699 351.283 857.341 408.94 855.2 476.194Z" fill="#00BF0A"/>
<path d="M853.128 519.979C852.897 520.308 852.657 520.637 852.411 520.961H831.695C831.852 520.681 832.034 520.352 832.245 519.979C835.667 513.803 845.796 495.337 855.198 476.194C865.298 455.622 874.572 434.27 873.791 426.542C874.033 428.284 881.025 481.418 853.128 519.979Z" fill="#085208"/>
<path d="M448.068 520.193H128.74C121.171 520.184 113.915 517.174 108.563 511.822C103.211 506.47 100.201 499.214 100.192 491.645V28.5477C100.201 20.979 103.211 13.7227 108.563 8.37086C113.915 3.01898 121.171 0.00854376 128.74 0H448.068C455.637 0.00854374 462.893 3.01898 468.245 8.37085C473.597 13.7227 476.607 20.979 476.616 28.5477V491.645C476.607 499.214 473.597 506.47 468.245 511.822C462.893 517.174 455.637 520.184 448.068 520.193Z" fill="#CACACA"/>
<path d="M448.63 501.979H128.178C125.844 501.976 123.608 501.048 121.958 499.398C120.308 497.749 119.38 495.512 119.378 493.179V27.0141C119.38 24.681 120.308 22.4442 121.958 20.7944C123.608 19.1447 125.844 18.2167 128.178 18.214H448.63C450.963 18.2167 453.2 19.1447 454.85 20.7944C456.499 22.4442 457.427 24.681 457.43 27.0141V493.179C457.427 495.512 456.499 497.749 454.85 499.398C453.2 501.048 450.963 501.976 448.63 501.979Z" fill="white"/>
<path d="M287.19 11.1713C288.531 11.1713 289.618 10.084 289.618 8.74275C289.618 7.4015 288.531 6.31421 287.19 6.31421C285.848 6.31421 284.761 7.4015 284.761 8.74275C284.761 10.084 285.848 11.1713 287.19 11.1713Z" fill="white"/>
<path d="M929.485 521.876H1.19067C0.874886 521.876 0.572035 521.751 0.34874 521.527C0.125444 521.304 0 521.001 0 520.685C0 520.37 0.125444 520.067 0.34874 519.843C0.572035 519.62 0.874886 519.495 1.19067 519.495H929.485C929.8 519.495 930.103 519.62 930.327 519.843C930.55 520.067 930.675 520.37 930.675 520.685C930.675 521.001 930.55 521.304 930.327 521.527C930.103 521.751 929.8 521.876 929.485 521.876Z" fill="#CACACA"/>
<path d="M288.401 386.346C305.522 386.346 319.401 372.467 319.401 355.346C319.401 338.226 305.522 324.346 288.401 324.346C271.28 324.346 257.401 338.226 257.401 355.346C257.401 372.467 271.28 386.346 288.401 386.346Z" fill="#F7360C"/>
<path d="M307.809 295.846H268.993L245.559 181.216C244.957 175.23 245.616 169.185 247.493 163.469C249.371 157.754 252.425 152.495 256.459 148.032C260.493 143.569 265.418 140.001 270.915 137.558C276.413 135.115 282.361 133.851 288.377 133.847C294.393 133.844 300.343 135.101 305.843 137.537C311.344 139.974 316.272 143.536 320.312 147.994C324.351 152.453 327.411 157.708 329.296 163.421C331.18 169.134 331.846 175.179 331.251 181.165L307.809 295.846Z" fill="#F7360C"/>
<path d="M440.918 141.766H582.792C589.638 141.766 596.28 144.095 601.627 148.371C606.974 152.647 610.707 158.614 612.213 165.293L683.899 483.261C684.681 486.729 684.695 490.326 683.939 493.8C683.184 497.274 681.678 500.541 679.527 503.372C677.375 506.202 674.631 508.528 671.486 510.185C668.34 511.843 664.871 512.793 661.32 512.967L515.473 520.153C507.663 520.538 499.98 518.068 493.857 513.205C487.735 508.341 483.591 501.416 482.199 493.722L441.535 268.915L433.843 226.392L422.492 163.64C422.006 160.952 422.118 158.19 422.822 155.551C423.526 152.912 424.803 150.46 426.563 148.371C428.322 146.282 430.521 144.607 433.002 143.466C435.484 142.324 438.186 141.744 440.918 141.766Z" fill="#3F3D56"/>
<path d="M641.764 551.178L465.347 552.797C443.836 552.995 426.193 537.69 426.019 518.681L422.943 183.647C422.768 164.638 440.127 149.012 461.638 148.814L638.056 147.195C659.566 146.997 677.209 162.302 677.383 181.311L680.459 516.345C680.633 535.355 663.275 550.98 641.764 551.178Z" fill="#3F3D56"/>
<path d="M678.199 270.073C677.288 270.082 676.554 270.743 676.562 271.547L676.99 318.217C676.997 319.021 677.744 319.668 678.654 319.66C679.564 319.651 680.298 318.991 680.291 318.186L679.862 271.517C679.855 270.712 679.109 270.065 678.199 270.073Z" fill="#3F3D56"/>
<path d="M673.67 181.345L676.746 516.374C676.898 532.92 662.449 546.587 644.032 547.807L644.024 547.807C643.752 547.824 643.48 547.841 643.199 547.851C642.712 547.877 642.226 547.889 641.731 547.893C641.731 547.893 639.914 547.793 636.595 547.605C633.242 547.417 628.363 547.134 622.277 546.759C620.452 546.652 618.528 546.531 616.497 546.404C612.451 546.149 608.008 545.869 603.244 545.548C601.344 545.427 599.379 545.292 597.372 545.158C587.116 544.471 575.63 543.665 563.514 542.741C561.466 542.592 559.402 542.436 557.321 542.273C556.776 542.227 556.222 542.188 555.669 542.142C547.031 541.47 429.768 522.55 429.732 518.641L426.657 183.613C426.499 166.382 442.173 152.272 461.672 152.093L482.748 151.9C486.114 151.869 488.842 154.163 489.158 157.128C489.185 157.325 489.211 157.521 489.254 157.718C489.892 160.695 493.006 162.745 496.439 162.713L603.516 161.73C606.949 161.699 610.025 159.592 610.608 156.604C610.647 156.407 610.67 156.21 610.693 156.012C610.955 153.042 613.64 150.698 617.007 150.667L638.082 150.474C657.582 150.295 673.512 164.114 673.67 181.345Z" fill="white"/>
<path d="M422.612 237.415C421.701 237.423 420.967 238.084 420.975 238.888L421.082 250.556C421.089 251.36 421.835 252.007 422.745 251.999C423.656 251.991 424.39 251.33 424.382 250.525L424.275 238.858C424.268 238.054 423.522 237.406 422.612 237.415Z" fill="#3F3D56"/>
<path d="M422.933 272.417C422.023 272.425 421.288 273.086 421.296 273.89L421.503 296.496C421.511 297.3 422.257 297.948 423.167 297.939C424.077 297.931 424.811 297.27 424.804 296.466L424.597 273.86C424.589 273.056 423.843 272.409 422.933 272.417Z" fill="#3F3D56"/>
<path d="M423.227 304.502C422.317 304.51 421.583 305.171 421.59 305.976L421.798 328.581C421.805 329.385 422.551 330.033 423.462 330.024C424.372 330.016 425.106 329.355 425.099 328.551L424.891 305.945C424.884 305.141 424.138 304.494 423.227 304.502Z" fill="#3F3D56"/>
<path d="M482.22 157.012L450.658 157.302C450.487 157.304 450.349 157.428 450.35 157.579L450.379 160.677C450.38 160.828 450.52 160.95 450.691 160.948L482.253 160.658C482.425 160.657 482.562 160.533 482.561 160.381L482.533 157.283C482.531 157.132 482.391 157.011 482.22 157.012Z" fill="#E6E6E6"/>
<path d="M622.302 159.373C624.125 159.356 625.591 158.036 625.576 156.425C625.562 154.815 624.072 153.522 622.249 153.539C620.426 153.556 618.96 154.875 618.975 156.486C618.99 158.097 620.479 159.389 622.302 159.373Z" fill="#E6E6E6"/>
<path d="M631.379 159.289C633.202 159.273 634.668 157.953 634.653 156.342C634.639 154.731 633.149 153.439 631.326 153.456C629.503 153.472 628.037 154.792 628.052 156.403C628.067 158.014 629.556 159.306 631.379 159.289Z" fill="#E6E6E6"/>
<path d="M640.457 159.206C642.28 159.189 643.745 157.87 643.731 156.259C643.716 154.648 642.226 153.356 640.403 153.372C638.58 153.389 637.114 154.709 637.129 156.319C637.144 157.93 638.634 159.223 640.457 159.206Z" fill="#E6E6E6"/>
<path d="M649.419 476.719L470.921 478.358C469.398 478.371 467.933 477.995 466.85 477.313C465.766 476.631 465.151 475.699 465.14 474.721L462.929 233.795C462.921 232.817 463.519 231.874 464.59 231.172C465.661 230.47 467.118 230.068 468.642 230.053L647.14 228.414C648.664 228.401 650.128 228.777 651.212 229.459C652.295 230.141 652.91 231.073 652.921 232.051L655.132 472.977C655.14 473.955 654.542 474.898 653.471 475.6C652.4 476.302 650.943 476.704 649.419 476.719Z" fill="white"/>
<path d="M631.973 455.67L484.979 457.019L485.011 460.554L632.005 459.205L631.973 455.67Z" fill="#00BF0A"/>
<path d="M492.459 477.932L487.22 229.882L459.897 230.325L465.136 478.374L492.459 477.932Z" fill="#00BF0A"/>
<path d="M569.112 307.782C592.031 307.571 610.48 293.158 610.319 275.589C610.157 258.02 591.447 243.949 568.528 244.159C545.61 244.369 527.161 258.782 527.322 276.351C527.483 293.92 546.194 307.992 569.112 307.782Z" fill="#E6E6E6"/>
<path d="M568.072 303.373C587.677 303.193 603.458 290.782 603.319 275.654C603.18 260.525 587.174 248.407 567.569 248.586C547.964 248.766 532.183 261.177 532.322 276.305C532.461 291.434 548.467 303.553 568.072 303.373Z" fill="white"/>
<path d="M568.674 260.065C564.62 260.102 560.665 261.045 557.31 262.775C553.954 264.505 551.349 266.945 549.823 269.785C548.298 272.624 547.92 275.737 548.739 278.73C549.557 281.722 551.535 284.46 554.422 286.596C557.308 288.732 560.974 290.172 564.956 290.732C568.938 291.292 573.057 290.948 576.792 289.743C580.527 288.538 583.71 286.527 585.94 283.963C588.169 281.4 589.344 278.399 589.315 275.34C589.278 271.239 587.082 267.326 583.211 264.461C579.34 261.596 574.111 260.015 568.674 260.065ZM568.717 264.704C569.933 264.693 571.125 264.954 572.141 265.454C573.157 265.955 573.952 266.672 574.425 267.516C574.898 268.359 575.029 269.291 574.8 270.193C574.571 271.095 573.992 271.927 573.138 272.584C572.284 273.24 571.192 273.692 570.001 273.882C568.81 274.072 567.572 273.992 566.445 273.651C565.318 273.31 564.353 272.724 563.67 271.967C562.987 271.211 562.618 270.317 562.61 269.4C562.604 268.79 562.758 268.186 563.062 267.62C563.365 267.054 563.814 266.539 564.381 266.103C564.948 265.667 565.623 265.319 566.367 265.079C567.111 264.839 567.909 264.711 568.717 264.704ZM568.922 287.037C566.492 287.051 564.098 286.618 561.947 285.774C559.796 284.931 557.952 283.704 556.577 282.199C556.647 279.105 564.732 277.328 568.833 277.29C572.933 277.253 581.049 278.881 581.176 281.973C579.827 283.502 578.006 284.763 575.871 285.645C573.736 286.528 571.351 287.006 568.922 287.038L568.922 287.037Z" fill="#00BF0A"/>
<path d="M602.7 317.194L530.703 317.855L530.744 322.273L602.741 321.613L602.7 317.194Z" fill="#E6E6E6"/>
<path d="M611.805 328.599L521.809 329.425L521.842 332.96L611.838 332.134L611.805 328.599Z" fill="#E6E6E6"/>
<path d="M633.088 359.334L506.094 360.5L506.986 457.701L633.981 456.535L633.088 359.334Z" fill="#E6E6E6"/>
<path d="M631.088 359.352L506.094 360.5L506.986 457.701L631.981 456.554L631.088 359.352Z" fill="white"/>
<g clip-path="url(#clip1_12_57)">
<path d="M595.074 357.916L499.078 358.797L499.71 427.721L595.706 426.84L595.074 357.916Z" fill="white"/>
<path d="M562.115 362.972L558.705 363.003L558.728 365.451L562.137 365.42L562.115 362.972Z" fill="black"/>
<path d="M538.965 365.561L535.555 365.593L535.578 368.041L538.987 368.009L538.965 365.561Z" fill="black"/>
<path d="M552.206 365.44L548.796 365.471L548.819 367.919L552.228 367.888L552.206 365.44Z" fill="black"/>
<path d="M558.826 365.379L555.417 365.41L555.439 367.858L558.849 367.827L558.826 365.379Z" fill="black"/>
<path d="M535.677 367.968L532.267 368L532.29 370.448L535.699 370.416L535.677 367.968Z" fill="black"/>
<path d="M545.607 367.877L542.198 367.909L542.22 370.357L545.63 370.325L545.607 367.877Z" fill="black"/>
<path d="M548.917 367.847L545.508 367.878L545.53 370.326L548.94 370.295L548.917 367.847Z" fill="black"/>
<path d="M555.538 367.786L552.128 367.817L552.151 370.265L555.56 370.234L555.538 367.786Z" fill="black"/>
<path d="M562.158 367.725L558.749 367.757L558.771 370.205L562.181 370.173L562.158 367.725Z" fill="black"/>
<path d="M535.698 370.345L532.289 370.376L532.311 372.824L535.721 372.793L535.698 370.345Z" fill="black"/>
<path d="M539.009 370.315L535.599 370.346L535.622 372.794L539.031 372.763L539.009 370.315Z" fill="black"/>
<path d="M548.939 370.224L545.53 370.255L545.552 372.703L548.962 372.672L548.939 370.224Z" fill="black"/>
<path d="M552.249 370.193L548.84 370.224L548.862 372.672L552.272 372.641L552.249 370.193Z" fill="black"/>
<path d="M555.56 370.163L552.15 370.194L552.173 372.642L555.582 372.611L555.56 370.163Z" fill="black"/>
<path d="M535.72 372.722L532.311 372.753L532.333 375.201L535.743 375.17L535.72 372.722Z" fill="black"/>
<path d="M545.651 372.631L542.241 372.662L542.264 375.11L545.673 375.079L545.651 372.631Z" fill="black"/>
<path d="M552.271 372.57L548.862 372.601L548.884 375.049L552.294 375.018L552.271 372.57Z" fill="black"/>
<path d="M535.742 375.099L532.333 375.13L532.355 377.578L535.765 377.547L535.742 375.099Z" fill="black"/>
<path d="M539.052 375.068L535.643 375.099L535.665 377.547L539.075 377.516L539.052 375.068Z" fill="black"/>
<path d="M552.293 374.947L548.884 374.978L548.906 377.426L552.316 377.395L552.293 374.947Z" fill="black"/>
<path d="M555.603 374.916L552.194 374.948L552.216 377.396L555.626 377.364L555.603 374.916Z" fill="black"/>
<path d="M558.913 374.886L555.504 374.917L555.526 377.365L558.936 377.334L558.913 374.886Z" fill="black"/>
<path d="M535.764 377.475L532.354 377.507L532.377 379.955L535.786 379.923L535.764 377.475Z" fill="black"/>
<path d="M542.384 377.415L538.975 377.446L538.997 379.894L542.407 379.863L542.384 377.415Z" fill="black"/>
<path d="M549.005 377.354L545.595 377.385L545.618 379.833L549.027 379.802L549.005 377.354Z" fill="black"/>
<path d="M555.625 377.293L552.216 377.324L552.238 379.772L555.648 379.741L555.625 377.293Z" fill="black"/>
<path d="M562.246 377.232L558.836 377.263L558.858 379.711L562.268 379.68L562.246 377.232Z" fill="black"/>
<path d="M535.786 379.852L532.376 379.883L532.399 382.331L535.808 382.3L535.786 379.852Z" fill="black"/>
<path d="M539.096 379.822L535.686 379.853L535.709 382.301L539.118 382.27L539.096 379.822Z" fill="black"/>
<path d="M542.406 379.791L538.997 379.823L539.019 382.271L542.429 382.239L542.406 379.791Z" fill="black"/>
<path d="M555.647 379.67L552.237 379.701L552.26 382.149L555.669 382.118L555.647 379.67Z" fill="black"/>
<path d="M558.957 379.639L555.548 379.671L555.57 382.119L558.98 382.087L558.957 379.639Z" fill="black"/>
<path d="M562.267 379.609L558.858 379.64L558.88 382.088L562.29 382.057L562.267 379.609Z" fill="black"/>
<path d="M509.326 382.472L505.916 382.503L505.939 384.951L509.348 384.92L509.326 382.472Z" fill="black"/>
<path d="M515.946 382.411L512.537 382.442L512.559 384.89L515.969 384.859L515.946 382.411Z" fill="black"/>
<path d="M519.256 382.381L515.847 382.412L515.869 384.86L519.279 384.829L519.256 382.381Z" fill="black"/>
<path d="M522.567 382.35L519.157 382.381L519.18 384.829L522.589 384.798L522.567 382.35Z" fill="black"/>
<path d="M525.877 382.32L522.467 382.351L522.49 384.799L525.899 384.768L525.877 382.32Z" fill="black"/>
<path d="M529.187 382.289L525.778 382.321L525.8 384.769L529.21 384.737L529.187 382.289Z" fill="black"/>
<path d="M539.118 382.198L535.708 382.23L535.731 384.678L539.14 384.646L539.118 382.198Z" fill="black"/>
<path d="M549.048 382.107L545.639 382.138L545.661 384.586L549.071 384.555L549.048 382.107Z" fill="black"/>
<path d="M552.359 382.077L548.949 382.108L548.972 384.556L552.381 384.525L552.359 382.077Z" fill="black"/>
<path d="M555.669 382.046L552.259 382.078L552.282 384.526L555.691 384.494L555.669 382.046Z" fill="black"/>
<path d="M558.979 382.016L555.569 382.047L555.592 384.495L559.001 384.464L558.979 382.016Z" fill="black"/>
<path d="M562.289 381.986L558.88 382.017L558.902 384.465L562.312 384.434L562.289 381.986Z" fill="black"/>
<path d="M568.91 381.925L565.5 381.956L565.523 384.404L568.932 384.373L568.91 381.925Z" fill="black"/>
<path d="M572.22 381.894L568.81 381.926L568.833 384.374L572.242 384.342L572.22 381.894Z" fill="black"/>
<path d="M575.53 381.864L572.12 381.895L572.143 384.343L575.552 384.312L575.53 381.864Z" fill="black"/>
<path d="M578.84 381.834L575.431 381.865L575.453 384.313L578.863 384.282L578.84 381.834Z" fill="black"/>
<path d="M582.15 381.803L578.741 381.834L578.763 384.282L582.173 384.251L582.15 381.803Z" fill="black"/>
<path d="M509.348 384.848L505.938 384.88L505.961 387.328L509.37 387.296L509.348 384.848Z" fill="black"/>
<path d="M512.658 384.818L509.248 384.849L509.271 387.297L512.68 387.266L512.658 384.818Z" fill="black"/>
<path d="M522.589 384.727L519.179 384.758L519.201 387.206L522.611 387.175L522.589 384.727Z" fill="black"/>
<path d="M525.899 384.696L522.489 384.728L522.512 387.176L525.921 387.144L525.899 384.696Z" fill="black"/>
<path d="M532.519 384.636L529.11 384.667L529.132 387.115L532.542 387.084L532.519 384.636Z" fill="black"/>
<path d="M535.829 384.605L532.42 384.637L532.442 387.085L535.852 387.053L535.829 384.605Z" fill="black"/>
<path d="M542.45 384.545L539.04 384.576L539.063 387.024L542.472 386.993L542.45 384.545Z" fill="black"/>
<path d="M549.07 384.484L545.661 384.515L545.683 386.963L549.093 386.932L549.07 384.484Z" fill="black"/>
<path d="M552.38 384.453L548.971 384.485L548.993 386.933L552.403 386.901L552.38 384.453Z" fill="black"/>
<path d="M562.311 384.362L558.901 384.394L558.924 386.842L562.333 386.81L562.311 384.362Z" fill="black"/>
<path d="M565.621 384.332L562.212 384.363L562.234 386.811L565.644 386.78L565.621 384.332Z" fill="black"/>
<path d="M572.242 384.271L568.832 384.302L568.855 386.75L572.264 386.719L572.242 384.271Z" fill="black"/>
<path d="M585.482 384.15L582.073 384.181L582.095 386.629L585.505 386.598L585.482 384.15Z" fill="black"/>
<path d="M509.37 387.225L505.96 387.256L505.982 389.704L509.392 389.673L509.37 387.225Z" fill="black"/>
<path d="M529.231 387.043L525.821 387.074L525.844 389.522L529.253 389.491L529.231 387.043Z" fill="black"/>
<path d="M539.161 386.952L535.752 386.983L535.774 389.431L539.184 389.4L539.161 386.952Z" fill="black"/>
<path d="M545.782 386.891L542.372 386.922L542.395 389.37L545.804 389.339L545.782 386.891Z" fill="black"/>
<path d="M549.092 386.861L545.682 386.892L545.705 389.34L549.114 389.309L549.092 386.861Z" fill="black"/>
<path d="M555.712 386.8L552.303 386.831L552.325 389.279L555.735 389.248L555.712 386.8Z" fill="black"/>
<path d="M559.023 386.769L555.613 386.801L555.636 389.249L559.045 389.217L559.023 386.769Z" fill="black"/>
<path d="M562.333 386.739L558.923 386.77L558.946 389.218L562.355 389.187L562.333 386.739Z" fill="black"/>
<path d="M568.953 386.678L565.544 386.709L565.566 389.157L568.976 389.126L568.953 386.678Z" fill="black"/>
<path d="M572.263 386.648L568.854 386.679L568.876 389.127L572.286 389.096L572.263 386.648Z" fill="black"/>
<path d="M578.884 386.587L575.474 386.618L575.497 389.066L578.906 389.035L578.884 386.587Z" fill="black"/>
<path d="M585.504 386.526L582.095 386.557L582.117 389.006L585.527 388.974L585.504 386.526Z" fill="black"/>
<path d="M588.814 386.496L585.405 386.527L585.427 388.975L588.837 388.944L588.814 386.496Z" fill="black"/>
<path d="M512.702 389.571L509.292 389.603L509.315 392.051L512.724 392.019L512.702 389.571Z" fill="black"/>
<path d="M516.012 389.541L512.602 389.572L512.625 392.02L516.034 391.989L516.012 389.541Z" fill="black"/>
<path d="M519.322 389.511L515.912 389.542L515.935 391.99L519.344 391.959L519.322 389.511Z" fill="black"/>
<path d="M522.632 389.48L519.223 389.512L519.245 391.96L522.655 391.928L522.632 389.48Z" fill="black"/>
<path d="M532.563 389.389L529.153 389.42L529.176 391.868L532.585 391.837L532.563 389.389Z" fill="black"/>
<path d="M539.183 389.328L535.774 389.36L535.796 391.808L539.206 391.776L539.183 389.328Z" fill="black"/>
<path d="M545.804 389.268L542.394 389.299L542.417 391.747L545.826 391.716L545.804 389.268Z" fill="black"/>
<path d="M555.734 389.176L552.325 389.208L552.347 391.656L555.757 391.624L555.734 389.176Z" fill="black"/>
<path d="M559.044 389.146L555.635 389.177L555.657 391.625L559.067 391.594L559.044 389.146Z" fill="black"/>
<path d="M562.355 389.116L558.945 389.147L558.968 391.595L562.377 391.564L562.355 389.116Z" fill="black"/>
<path d="M588.836 388.873L585.427 388.904L585.449 391.352L588.859 391.321L588.836 388.873Z" fill="black"/>
<path d="M509.413 391.979L506.004 392.01L506.026 394.458L509.436 394.427L509.413 391.979Z" fill="black"/>
<path d="M512.723 391.948L509.314 391.979L509.336 394.428L512.746 394.396L512.723 391.948Z" fill="black"/>
<path d="M525.964 391.827L522.555 391.858L522.577 394.306L525.987 394.275L525.964 391.827Z" fill="black"/>
<path d="M529.274 391.796L525.865 391.828L525.887 394.276L529.297 394.244L529.274 391.796Z" fill="black"/>
<path d="M532.585 391.766L529.175 391.797L529.198 394.245L532.607 394.214L532.585 391.766Z" fill="black"/>
<path d="M539.205 391.705L535.795 391.736L535.818 394.184L539.227 394.153L539.205 391.705Z" fill="black"/>
<path d="M559.066 391.523L555.657 391.554L555.679 394.002L559.089 393.971L559.066 391.523Z" fill="black"/>
<path d="M565.687 391.462L562.277 391.493L562.3 393.941L565.709 393.91L565.687 391.462Z" fill="black"/>
<path d="M568.997 391.432L565.587 391.463L565.61 393.911L569.019 393.88L568.997 391.432Z" fill="black"/>
<path d="M572.307 391.401L568.898 391.432L568.92 393.881L572.33 393.849L572.307 391.401Z" fill="black"/>
<path d="M575.617 391.371L572.208 391.402L572.23 393.85L575.64 393.819L575.617 391.371Z" fill="black"/>
<path d="M582.238 391.31L578.828 391.341L578.851 393.789L582.26 393.758L582.238 391.31Z" fill="black"/>
<path d="M585.548 391.28L582.138 391.311L582.161 393.759L585.57 393.728L585.548 391.28Z" fill="black"/>
<path d="M588.858 391.249L585.449 391.281L585.471 393.729L588.881 393.697L588.858 391.249Z" fill="black"/>
<path d="M509.435 394.355L506.025 394.387L506.048 396.835L509.457 396.803L509.435 394.355Z" fill="black"/>
<path d="M512.745 394.325L509.336 394.356L509.358 396.804L512.768 396.773L512.745 394.325Z" fill="black"/>
<path d="M516.055 394.295L512.646 394.326L512.668 396.774L516.078 396.743L516.055 394.295Z" fill="black"/>
<path d="M522.676 394.234L519.266 394.265L519.289 396.713L522.698 396.682L522.676 394.234Z" fill="black"/>
<path d="M525.986 394.203L522.576 394.235L522.599 396.683L526.008 396.651L525.986 394.203Z" fill="black"/>
<path d="M532.606 394.143L529.197 394.174L529.219 396.622L532.629 396.591L532.606 394.143Z" fill="black"/>
<path d="M535.917 394.112L532.507 394.144L532.53 396.592L535.939 396.56L535.917 394.112Z" fill="black"/>
<path d="M549.157 393.991L545.748 394.022L545.77 396.47L549.18 396.439L549.157 393.991Z" fill="black"/>
<path d="M552.468 393.96L549.058 393.992L549.081 396.44L552.49 396.408L552.468 393.96Z" fill="black"/>
<path d="M562.398 393.869L558.989 393.9L559.011 396.348L562.421 396.317L562.398 393.869Z" fill="black"/>
<path d="M565.708 393.839L562.299 393.87L562.321 396.318L565.731 396.287L565.708 393.839Z" fill="black"/>
<path d="M572.329 393.778L568.919 393.809L568.942 396.257L572.351 396.226L572.329 393.778Z" fill="black"/>
<path d="M578.949 393.717L575.54 393.748L575.562 396.196L578.972 396.165L578.949 393.717Z" fill="black"/>
<path d="M585.57 393.656L582.16 393.688L582.183 396.136L585.592 396.104L585.57 393.656Z" fill="black"/>
<path d="M509.457 396.732L506.047 396.763L506.07 399.211L509.479 399.18L509.457 396.732Z" fill="black"/>
<path d="M519.387 396.641L515.978 396.672L516 399.12L519.41 399.089L519.387 396.641Z" fill="black"/>
<path d="M522.698 396.61L519.288 396.642L519.311 399.09L522.72 399.058L522.698 396.61Z" fill="black"/>
<path d="M526.008 396.58L522.598 396.611L522.621 399.059L526.03 399.028L526.008 396.58Z" fill="black"/>
<path d="M529.318 396.55L525.909 396.581L525.931 399.029L529.34 398.998L529.318 396.55Z" fill="black"/>
<path d="M539.249 396.459L535.839 396.49L535.862 398.938L539.271 398.907L539.249 396.459Z" fill="black"/>
<path d="M542.559 396.428L539.149 396.459L539.172 398.907L542.581 398.876L542.559 396.428Z" fill="black"/>
<path d="M552.489 396.337L549.08 396.368L549.102 398.816L552.512 398.785L552.489 396.337Z" fill="black"/>
<path d="M555.8 396.307L552.39 396.338L552.413 398.786L555.822 398.755L555.8 396.307Z" fill="black"/>
<path d="M559.11 396.276L555.7 396.307L555.723 398.756L559.132 398.724L559.11 396.276Z" fill="black"/>
<path d="M569.04 396.185L565.631 396.216L565.653 398.664L569.063 398.633L569.04 396.185Z" fill="black"/>
<path d="M572.351 396.155L568.941 396.186L568.964 398.634L572.373 398.603L572.351 396.155Z" fill="black"/>
<path d="M575.661 396.124L572.251 396.156L572.274 398.604L575.683 398.572L575.661 396.124Z" fill="black"/>
<path d="M578.971 396.094L575.562 396.125L575.584 398.573L578.994 398.542L578.971 396.094Z" fill="black"/>
<path d="M585.592 396.033L582.182 396.064L582.204 398.512L585.614 398.481L585.592 396.033Z" fill="black"/>
<path d="M588.902 396.003L585.492 396.034L585.515 398.482L588.924 398.451L588.902 396.003Z" fill="black"/>
<path d="M509.479 399.109L506.069 399.14L506.092 401.588L509.501 401.557L509.479 399.109Z" fill="black"/>
<path d="M516.099 399.048L512.69 399.079L512.712 401.527L516.121 401.496L516.099 399.048Z" fill="black"/>
<path d="M519.409 399.018L516 399.049L516.022 401.497L519.432 401.466L519.409 399.018Z" fill="black"/>
<path d="M535.96 398.866L532.551 398.897L532.573 401.345L535.983 401.314L535.96 398.866Z" fill="black"/>
<path d="M542.581 398.805L539.171 398.836L539.194 401.284L542.603 401.253L542.581 398.805Z" fill="black"/>
<path d="M549.201 398.744L545.792 398.775L545.814 401.223L549.224 401.192L549.201 398.744Z" fill="black"/>
<path d="M552.511 398.714L549.102 398.745L549.124 401.193L552.534 401.162L552.511 398.714Z" fill="black"/>
<path d="M562.442 398.623L559.032 398.654L559.055 401.102L562.464 401.071L562.442 398.623Z" fill="black"/>
<path d="M569.062 398.562L565.653 398.593L565.675 401.041L569.085 401.01L569.062 398.562Z" fill="black"/>
<path d="M572.373 398.531L568.963 398.563L568.985 401.011L572.395 400.979L572.373 398.531Z" fill="black"/>
<path d="M575.683 398.501L572.273 398.532L572.296 400.98L575.705 400.949L575.683 398.501Z" fill="black"/>
<path d="M588.924 398.379L585.514 398.411L585.537 400.859L588.946 400.827L588.924 398.379Z" fill="black"/>
<path d="M509.5 401.485L506.091 401.517L506.113 403.965L509.523 403.933L509.5 401.485Z" fill="black"/>
<path d="M522.741 401.364L519.332 401.395L519.354 403.843L522.764 403.812L522.741 401.364Z" fill="black"/>
<path d="M526.051 401.333L522.642 401.365L522.664 403.813L526.074 403.781L526.051 401.333Z" fill="black"/>
<path d="M529.362 401.303L525.952 401.334L525.975 403.782L529.384 403.751L529.362 401.303Z" fill="black"/>
<path d="M532.672 401.273L529.262 401.304L529.285 403.752L532.694 403.721L532.672 401.273Z" fill="black"/>
<path d="M535.982 401.242L532.573 401.274L532.595 403.722L536.005 403.69L535.982 401.242Z" fill="black"/>
<path d="M542.603 401.182L539.193 401.213L539.215 403.661L542.625 403.63L542.603 401.182Z" fill="black"/>
<path d="M549.223 401.121L545.813 401.152L545.836 403.6L549.245 403.569L549.223 401.121Z" fill="black"/>
<path d="M555.843 401.06L552.434 401.091L552.456 403.539L555.866 403.508L555.843 401.06Z" fill="black"/>
<path d="M562.464 400.999L559.054 401.031L559.077 403.479L562.486 403.447L562.464 400.999Z" fill="black"/>
<path d="M565.774 400.969L562.364 401L562.387 403.448L565.796 403.417L565.774 400.969Z" fill="black"/>
<path d="M569.084 400.938L565.675 400.97L565.697 403.418L569.107 403.386L569.084 400.938Z" fill="black"/>
<path d="M572.394 400.908L568.985 400.939L569.007 403.387L572.417 403.356L572.394 400.908Z" fill="black"/>
<path d="M575.705 400.878L572.295 400.909L572.318 403.357L575.727 403.326L575.705 400.878Z" fill="black"/>
<path d="M582.325 400.817L578.915 400.848L578.938 403.296L582.347 403.265L582.325 400.817Z" fill="black"/>
<path d="M536.004 403.619L532.594 403.65L532.617 406.098L536.026 406.067L536.004 403.619Z" fill="black"/>
<path d="M542.624 403.558L539.215 403.59L539.237 406.038L542.647 406.006L542.624 403.558Z" fill="black"/>
<path d="M559.175 403.406L555.766 403.438L555.788 405.886L559.198 405.854L559.175 403.406Z" fill="black"/>
<path d="M562.486 403.376L559.076 403.407L559.098 405.855L562.508 405.824L562.486 403.376Z" fill="black"/>
<path d="M575.726 403.254L572.317 403.286L572.339 405.734L575.749 405.702L575.726 403.254Z" fill="black"/>
<path d="M579.037 403.224L575.627 403.255L575.649 405.703L579.059 405.672L579.037 403.224Z" fill="black"/>
<path d="M539.336 405.965L535.926 405.997L535.949 408.445L539.358 408.413L539.336 405.965Z" fill="black"/>
<path d="M545.956 405.905L542.547 405.936L542.569 408.384L545.979 408.353L545.956 405.905Z" fill="black"/>
<path d="M549.267 405.874L545.857 405.906L545.879 408.354L549.289 408.322L549.267 405.874Z" fill="black"/>
<path d="M562.507 405.753L559.098 405.784L559.12 408.232L562.53 408.201L562.507 405.753Z" fill="black"/>
<path d="M569.128 405.692L565.718 405.723L565.741 408.171L569.15 408.14L569.128 405.692Z" fill="black"/>
<path d="M575.748 405.631L572.339 405.662L572.361 408.11L575.771 408.079L575.748 405.631Z" fill="black"/>
<path d="M582.369 405.57L578.959 405.602L578.982 408.05L582.391 408.018L582.369 405.57Z" fill="black"/>
<path d="M585.679 405.54L582.269 405.571L582.292 408.019L585.701 407.988L585.679 405.54Z" fill="black"/>
<path d="M588.989 405.51L585.579 405.541L585.602 407.989L589.011 407.958L588.989 405.51Z" fill="black"/>
<path d="M536.048 408.373L532.638 408.404L532.66 410.852L536.07 410.821L536.048 408.373Z" fill="black"/>
<path d="M545.978 408.281L542.569 408.313L542.591 410.761L546.001 410.729L545.978 408.281Z" fill="black"/>
<path d="M555.909 408.19L552.499 408.221L552.522 410.669L555.931 410.638L555.909 408.19Z" fill="black"/>
<path d="M562.529 408.129L559.12 408.161L559.142 410.609L562.552 410.577L562.529 408.129Z" fill="black"/>
<path d="M575.77 408.008L572.36 408.039L572.383 410.487L575.792 410.456L575.77 408.008Z" fill="black"/>
<path d="M579.08 407.977L575.671 408.009L575.693 410.457L579.103 410.425L579.08 407.977Z" fill="black"/>
<path d="M589.011 407.886L585.601 407.918L585.624 410.366L589.033 410.334L589.011 407.886Z" fill="black"/>
<path d="M536.069 410.749L532.66 410.781L532.682 413.229L536.092 413.197L536.069 410.749Z" fill="black"/>
<path d="M542.69 410.688L539.28 410.72L539.303 413.168L542.712 413.136L542.69 410.688Z" fill="black"/>
<path d="M546 410.658L542.59 410.689L542.613 413.137L546.022 413.106L546 410.658Z" fill="black"/>
<path d="M559.241 410.536L555.831 410.568L555.854 413.016L559.263 412.984L559.241 410.536Z" fill="black"/>
<path d="M562.551 410.506L559.141 410.537L559.164 412.985L562.573 412.954L562.551 410.506Z" fill="black"/>
<path d="M565.861 410.476L562.452 410.507L562.474 412.955L565.884 412.924L565.861 410.476Z" fill="black"/>
<path d="M569.171 410.445L565.762 410.477L565.784 412.925L569.194 412.893L569.171 410.445Z" fill="black"/>
<path d="M572.482 410.415L569.072 410.446L569.095 412.894L572.504 412.863L572.482 410.415Z" fill="black"/>
<path d="M575.792 410.384L572.382 410.416L572.405 412.864L575.814 412.832L575.792 410.384Z" fill="black"/>
<path d="M582.412 410.324L579.003 410.355L579.025 412.803L582.435 412.772L582.412 410.324Z" fill="black"/>
<path d="M585.722 410.293L582.313 410.325L582.335 412.773L585.745 412.741L585.722 410.293Z" fill="black"/>
<path d="M589.033 410.263L585.623 410.294L585.646 412.742L589.055 412.711L589.033 410.263Z" fill="black"/>
<path d="M536.091 413.126L532.682 413.157L532.704 415.605L536.114 415.574L536.091 413.126Z" fill="black"/>
<path d="M549.332 413.004L545.922 413.036L545.945 415.484L549.354 415.452L549.332 413.004Z" fill="black"/>
<path d="M552.642 412.974L549.233 413.005L549.255 415.453L552.665 415.422L552.642 412.974Z" fill="black"/>
<path d="M555.952 412.944L552.543 412.975L552.565 415.423L555.975 415.392L555.952 412.944Z" fill="black"/>
<path d="M565.883 412.852L562.474 412.884L562.496 415.332L565.905 415.3L565.883 412.852Z" fill="black"/>
<path d="M569.193 412.822L565.784 412.853L565.806 415.301L569.216 415.27L569.193 412.822Z" fill="black"/>
<path d="M575.814 412.761L572.404 412.792L572.427 415.24L575.836 415.209L575.814 412.761Z" fill="black"/>
<path d="M579.124 412.731L575.714 412.762L575.737 415.21L579.146 415.179L579.124 412.731Z" fill="black"/>
<path d="M582.434 412.7L579.025 412.732L579.047 415.18L582.457 415.148L582.434 412.7Z" fill="black"/>
<path d="M585.744 412.67L582.335 412.701L582.357 415.149L585.767 415.118L585.744 412.67Z" fill="black"/>
<path d="M589.054 412.64L585.645 412.671L585.667 415.119L589.077 415.088L589.054 412.64Z" fill="black"/>
<path d="M536.113 415.503L532.703 415.534L532.726 417.982L536.135 417.951L536.113 415.503Z" fill="black"/>
<path d="M539.423 415.472L536.014 415.504L536.036 417.952L539.446 417.92L539.423 415.472Z" fill="black"/>
<path d="M542.733 415.442L539.324 415.473L539.346 417.921L542.756 417.89L542.733 415.442Z" fill="black"/>
<path d="M552.664 415.351L549.255 415.382L549.277 417.83L552.687 417.799L552.664 415.351Z" fill="black"/>
<path d="M555.974 415.32L552.565 415.352L552.587 417.8L555.997 417.768L555.974 415.32Z" fill="black"/>
<path d="M559.284 415.29L555.875 415.321L555.897 417.769L559.307 417.738L559.284 415.29Z" fill="black"/>
<path d="M579.146 415.107L575.736 415.139L575.759 417.587L579.168 417.556L579.146 415.107Z" fill="black"/>
<path d="M582.456 415.077L579.046 415.108L579.069 417.556L582.478 417.525L582.456 415.077Z" fill="black"/>
<path d="M589.076 415.016L585.667 415.048L585.689 417.496L589.099 417.464L589.076 415.016Z" fill="black"/>
<path d="M549.376 417.758L545.966 417.789L545.989 420.237L549.398 420.206L549.376 417.758Z" fill="black"/>
<path d="M552.686 417.727L549.276 417.759L549.299 420.207L552.708 420.175L552.686 417.727Z" fill="black"/>
<path d="M559.306 417.667L555.897 417.698L555.919 420.146L559.329 420.115L559.306 417.667Z" fill="black"/>
<path d="M562.616 417.636L559.207 417.667L559.229 420.115L562.639 420.084L562.616 417.636Z" fill="black"/>
<path d="M565.927 417.606L562.517 417.637L562.54 420.085L565.949 420.054L565.927 417.606Z" fill="black"/>
<path d="M572.547 417.545L569.138 417.576L569.16 420.024L572.57 419.993L572.547 417.545Z" fill="black"/>
<path d="M575.857 417.515L572.448 417.546L572.47 419.994L575.88 419.963L575.857 417.515Z" fill="black"/>
<path d="M579.167 417.484L575.758 417.516L575.78 419.964L579.19 419.932L579.167 417.484Z" fill="black"/>
<path d="M589.098 417.393L585.689 417.424L585.711 419.872L589.121 419.841L589.098 417.393Z" fill="black"/>
<path d="M536.157 420.256L532.747 420.287L532.77 422.735L536.179 422.704L536.157 420.256Z" fill="black"/>
<path d="M549.397 420.134L545.988 420.166L546.01 422.614L549.42 422.582L549.397 420.134Z" fill="black"/>
<path d="M556.018 420.074L552.608 420.105L552.631 422.553L556.04 422.522L556.018 420.074Z" fill="black"/>
<path d="M569.259 419.952L565.849 419.983L565.872 422.431L569.281 422.4L569.259 419.952Z" fill="black"/>
<path d="M572.569 419.922L569.159 419.953L569.182 422.401L572.591 422.37L572.569 419.922Z" fill="black"/>
<path d="M575.879 419.891L572.47 419.923L572.492 422.371L575.902 422.339L575.879 419.891Z" fill="black"/>
<path d="M579.189 419.861L575.78 419.892L575.802 422.34L579.212 422.309L579.189 419.861Z" fill="black"/>
<path d="M582.499 419.831L579.09 419.862L579.112 422.31L582.522 422.279L582.499 419.831Z" fill="black"/>
<path d="M585.81 419.8L582.4 419.832L582.423 422.28L585.832 422.248L585.81 419.8Z" fill="black"/>
<path d="M589.12 419.77L585.71 419.801L585.733 422.249L589.142 422.218L589.12 419.77Z" fill="black"/>
<path d="M505.742 363.489L505.895 380.126L529.066 379.914L528.913 363.277L505.742 363.489ZM525.734 377.567L509.183 377.719L509.074 365.836L525.625 365.684L525.734 377.567Z" fill="black"/>
<path d="M565.326 362.942L565.478 379.579L588.65 379.367L588.497 362.73L565.326 362.942ZM585.318 377.02L568.767 377.172L568.658 365.289L585.209 365.137L585.318 377.02Z" fill="black"/>
<path d="M506.135 406.27L506.287 422.907L529.459 422.694L529.306 406.057L506.135 406.27ZM526.127 420.348L509.576 420.5L509.467 408.616L526.018 408.465L526.127 420.348Z" fill="black"/>
<path d="M522.337 368.091L512.406 368.182L512.471 375.312L522.402 375.221L522.337 368.091Z" fill="black"/>
<path d="M581.92 367.544L571.99 367.635L572.055 374.765L581.986 374.674L581.92 367.544Z" fill="black"/>
<path d="M522.729 410.872L512.799 410.963L512.864 418.093L522.795 418.002L522.729 410.872Z" fill="black"/>
</g>
<path d="M603.192 293.195C620.313 293.195 634.192 279.316 634.192 262.195C634.192 245.074 620.313 231.195 603.192 231.195C586.071 231.195 572.192 245.074 572.192 262.195C572.192 279.316 586.071 293.195 603.192 293.195Z" fill="#F7360C"/>
<path d="M622.6 202.695H583.784L560.35 88.0644C559.748 82.0787 560.407 76.0333 562.284 70.3177C564.162 64.6022 567.216 59.3435 571.25 54.8806C575.284 50.4177 580.209 46.8497 585.706 44.4065C591.203 41.9633 597.152 40.6991 603.168 40.6956C609.184 40.692 615.134 41.9491 620.634 44.3858C626.134 46.8225 631.063 50.3847 635.103 54.8428C639.142 59.3009 642.202 64.556 644.086 70.2692C645.971 75.9825 646.637 82.0272 646.042 88.0137L622.6 202.695Z" fill="#F7360C"/>
</g>
<defs>
<clipPath id="clip0_12_57">
<rect width="930.675" height="521.876" fill="white"/>
</clipPath>
<clipPath id="clip1_12_57">
<rect width="96" height="68.9275" fill="white" transform="translate(499.078 358.797) rotate(-0.525961)"/>
</clipPath>
</defs>
</svg>
