<svg width="294" height="268" viewBox="0 0 294 268" fill="none" xmlns="http://www.w3.org/2000/svg">
<g clip-path="url(#clip0_1_2)">
<path d="M203.166 267.325H119.744C107.232 267.325 97.0526 257.091 97.0526 244.513V22.8123C97.0526 10.2336 107.232 0 119.744 0H161.455H203.166C215.678 0 225.857 10.2336 225.857 22.8123C227.41 111.84 230.058 211.538 225.857 244.513C225.857 257.091 215.678 267.325 203.166 267.325Z" fill="#3D5644"/>
<path d="M227.02 81.5486C226.491 81.5486 226.06 81.9814 226.06 82.5137V113.396C226.06 113.928 226.491 114.361 227.02 114.361C227.55 114.361 227.98 113.928 227.98 113.396V82.5137C227.98 81.9814 227.55 81.5486 227.02 81.5486Z" fill="#3F3D56"/>
<path d="M223.697 22.8125V244.509C223.697 255.457 215.221 264.413 204.503 265.108H204.498C204.34 265.118 204.181 265.127 204.018 265.132C203.735 265.147 203.452 265.152 203.164 265.152C203.164 265.152 202.108 265.074 200.178 264.93C198.229 264.785 195.393 264.568 191.855 264.283C190.795 264.201 189.676 264.109 188.495 264.013C186.143 263.82 183.561 263.607 180.792 263.366C179.688 263.275 178.545 263.173 177.379 263.072C171.418 262.556 164.741 261.952 157.7 261.267C156.509 261.156 155.309 261.04 154.1 260.92C153.783 260.886 99.2128 247.095 99.2128 244.509V22.8125C99.2128 11.4102 108.404 2.1696 119.746 2.1696H132.005C133.964 2.1696 135.538 3.70406 135.706 5.66799C135.72 5.79828 135.735 5.92855 135.759 6.05884C136.114 8.03243 137.914 9.40764 139.911 9.40764H183C184.996 9.40764 186.796 8.03243 187.151 6.05884C187.175 5.92855 187.19 5.79828 187.204 5.66799C187.372 3.70407 188.947 2.1696 190.905 2.1696H203.164C214.506 2.1696 223.697 11.4102 223.697 22.8125Z" fill="white"/>
<path d="M96.5727 58.3869C96.0433 58.3869 95.6127 58.8197 95.6127 59.352V67.0725C95.6127 67.6048 96.0433 68.0376 96.5727 68.0376C97.1021 68.0376 97.5327 67.6048 97.5327 67.0725V59.352C97.5327 58.8197 97.1021 58.3869 96.5727 58.3869Z" fill="#3F3D56"/>
<path d="M96.5727 81.5486C96.0433 81.5486 95.6127 81.9814 95.6127 82.5137V97.4723C95.6127 98.0045 96.0433 98.4374 96.5727 98.4374C97.1021 98.4374 97.5327 98.0045 97.5327 97.4723V82.5137C97.5327 81.9814 97.1021 81.5486 96.5727 81.5486Z" fill="#3F3D56"/>
<path d="M96.5727 102.78C96.0433 102.78 95.6127 103.213 95.6127 103.745V118.704C95.6127 119.236 96.0433 119.669 96.5727 119.669C97.1021 119.669 97.5327 119.236 97.5327 118.704V103.745C97.5327 103.213 97.1021 102.78 96.5727 102.78Z" fill="#3F3D56"/>
<path d="M131.69 5.54924H113.294C113.204 5.54924 113.132 5.6219 113.132 5.71152V7.79964C113.132 7.88926 113.204 7.96192 113.294 7.96192H131.69C131.779 7.96192 131.852 7.88926 131.852 7.79964V5.71152C131.852 5.6219 131.779 5.54924 131.69 5.54924Z" fill="#E6E6E6"/>
<path d="M193.938 7.96192C194.999 7.96192 195.858 7.09776 195.858 6.03177C195.858 4.96579 194.999 4.10163 193.938 4.10163C192.878 4.10163 192.018 4.96579 192.018 6.03177C192.018 7.09776 192.878 7.96192 193.938 7.96192Z" fill="#E6E6E6"/>
<path d="M199.218 7.96192C200.278 7.96192 201.138 7.09776 201.138 6.03177C201.138 4.96579 200.278 4.10163 199.218 4.10163C198.158 4.10163 197.298 4.96579 197.298 6.03177C197.298 7.09776 198.158 7.96192 199.218 7.96192Z" fill="#E6E6E6"/>
<path d="M204.498 7.96192C205.558 7.96192 206.418 7.09776 206.418 6.03177C206.418 4.96579 205.558 4.10163 204.498 4.10163C203.438 4.10163 202.578 4.96579 202.578 6.03177C202.578 7.09776 203.438 7.96192 204.498 7.96192Z" fill="#E6E6E6"/>
<path d="M7.44872 267.377C7.44872 267.723 7.72453 268 8.06798 268H293.381C293.724 268 294 267.723 294 267.377C294 267.032 293.724 266.755 293.381 266.755H8.06798C7.72453 266.755 7.44872 267.032 7.44872 267.377Z" fill="#CCCCCC"/>
<path d="M98.419 263.289L92.5681 263.288L89.7848 240.6L98.4202 240.601L98.419 263.289Z" fill="#FFB6B6"/>
<path d="M78.3732 263.155C78.191 263.464 78.0948 264.459 78.0948 264.818C78.0948 265.921 78.9839 266.814 80.0807 266.814H98.2002C98.9484 266.814 99.5549 266.205 99.5549 265.452V264.694C99.5549 264.694 100.451 262.415 98.6058 259.605C98.6058 259.605 96.3122 261.805 92.8849 258.36L91.8742 256.519L84.5584 261.898L80.5033 262.4C79.6161 262.509 78.8295 262.383 78.3732 263.155Z" fill="#2F2E41"/>
<path d="M66.0627 231.776L60.2118 231.757L57.5002 209.06L66.1355 209.088L66.0627 231.776Z" fill="#FFB6B6"/>
<path d="M46.0173 231.579C45.8342 231.887 45.7349 232.882 45.7338 233.24C45.7303 234.343 46.6165 235.24 47.7133 235.243L65.8327 235.301C66.5809 235.303 67.1894 234.696 67.1917 233.943L67.1941 233.185C67.1941 233.185 68.0977 230.909 66.2611 228.093C66.2611 228.093 63.9606 230.286 60.5442 226.829L59.5393 224.985L52.2065 230.341L48.1499 230.83C47.2623 230.937 46.4761 230.807 46.0173 231.579Z" fill="#2F2E41"/>
<path d="M89.8856 125.552L82.6004 126.076C82.6004 126.076 57.9373 140.173 55.8558 143.311C53.7743 146.45 50.9123 150.897 53.5141 155.605C56.116 160.313 54.1357 217.321 54.1357 217.321L66.5688 214.493L74.5347 154.848L91.1865 152.494C91.1865 152.494 96.9105 164.909 94.8291 175.18C92.7476 185.451 91.7068 191.729 91.7068 191.729L89.105 252.413L99.2522 252.151L108.359 195.914L123.97 151.448L103.675 127.383L89.8856 125.552Z" fill="#1E2013"/>
<path d="M125.791 61.2068L110.7 62.7762L109.139 68.0075L94.5689 75.8546L99.2522 108.812L95.6096 114.567L97.1707 120.321C97.1707 120.321 93.0078 120.844 93.5281 123.983L84.1615 125.552C84.1615 125.552 96.5848 128.102 99.2194 140.69C101.854 153.279 123.709 154.848 123.709 154.848L140.882 100.965L142.443 69.0538L130.474 65.915L125.791 61.2068Z" fill="#E6E6E6"/>
<path d="M117.838 59.2217C124.317 59.2217 129.569 53.9415 129.569 47.4281C129.569 40.9148 124.317 35.6346 117.838 35.6346C111.359 35.6346 106.107 40.9148 106.107 47.4281C106.107 53.9415 111.359 59.2217 117.838 59.2217Z" fill="#FFB6B6"/>
<path d="M111.741 58.068C111.741 58.068 101.334 57.5448 102.374 49.1747C99.7984 40.2614 102.078 34.4741 110.18 32.4344C110.18 32.4344 112.261 31.9112 112.782 31.9112C119.626 31.9112 123.189 34.0038 123.189 34.0038C123.189 34.0038 122.669 31.9318 123.189 32.4447C123.709 32.9575 124.23 34.0038 124.23 34.0038C124.23 34.0038 129.434 36.6194 129.434 41.8508C129.434 47.0821 129.434 44.9896 129.434 44.9896C129.434 44.9896 128.393 44.9896 127.352 41.8508C126.311 38.712 119.573 40.8045 119.573 40.8045L120.067 41.8508L118.506 41.3277L116.945 42.8971L115.904 42.3739C115.904 42.3739 111.741 42.3739 112.261 42.3739C112.782 42.3739 112.419 45.9291 112.419 45.9291L108.619 50.2209L112.782 58.068H111.741Z" fill="#2F2E41"/>
<path d="M56.2935 120.506C53.3309 122.132 51.7633 124.986 52.7922 126.881C53.8212 128.777 57.057 128.995 60.0197 127.37C61.3165 126.658 62.346 125.711 63.0074 124.712L75.4751 117.666L72.0614 111.855L60.1331 119.418C58.9395 119.437 57.5904 119.795 56.2935 120.506Z" fill="#FFB6B6"/>
<path d="M98.3383 76.0987C98.3383 76.0987 93.451 74.228 91.7671 76.4798C90.0832 78.7316 78.9593 106.055 78.9593 106.055L62.6385 114.624L67.2281 122.659L88.2444 115.625L102.11 90.1305L98.3383 76.0987Z" fill="#E6E6E6"/>
<path d="M252.456 165.833V221.285C252.456 226.189 248.488 230.178 243.61 230.178H107.274C102.396 230.178 98.4273 226.189 98.4273 221.285V165.833C98.4273 160.929 102.396 156.939 107.274 156.939H243.61C248.488 156.939 252.456 160.929 252.456 165.833Z" fill="white"/>
<path d="M252.456 165.833V221.285C252.456 226.189 248.488 230.178 243.61 230.178H107.274C102.396 230.178 98.4273 226.189 98.4273 221.285V165.833C98.4273 160.929 102.396 156.939 107.274 156.939H243.61C248.488 156.939 252.456 160.929 252.456 165.833ZM243.61 229.132C247.921 229.132 251.416 225.619 251.416 221.285V193.328C251.416 173.809 235.676 157.986 216.26 157.986H107.274C102.963 157.986 99.4681 161.499 99.4681 165.833V221.285C99.4681 225.619 102.963 229.132 107.274 229.132H243.61Z" fill="#1AAC28"/>
<path d="M159.628 190.442H141.821C141.372 190.442 141.007 190.809 141.007 191.26C141.007 191.711 141.372 192.079 141.821 192.079H159.628C160.077 192.079 160.442 191.711 160.442 191.26C160.442 190.809 160.077 190.442 159.628 190.442Z" fill="#6C63FF"/>
<path d="M186.687 190.442H168.88C168.431 190.442 168.066 190.809 168.066 191.26C168.066 191.711 168.431 192.079 168.88 192.079H186.687C187.136 192.079 187.501 191.711 187.501 191.26C187.501 190.809 187.136 190.442 186.687 190.442Z" fill="#6C63FF"/>
<path d="M159.628 199.39H141.821C141.372 199.39 141.007 199.758 141.007 200.209C141.007 200.66 141.372 201.027 141.821 201.027H159.628C160.077 201.027 160.442 200.66 160.442 200.209C160.442 199.758 160.077 199.39 159.628 199.39Z" fill="#6C63FF"/>
<path d="M186.687 199.39H168.88C168.431 199.39 168.066 199.758 168.066 200.209C168.066 200.66 168.431 201.027 168.88 201.027H186.687C187.136 201.027 187.501 200.66 187.501 200.209C187.501 199.758 187.136 199.39 186.687 199.39Z" fill="#6C63FF"/>
<path d="M214.56 200.209C214.56 199.758 214.195 199.39 213.746 199.39H195.939C195.49 199.39 195.125 199.758 195.125 200.209C195.125 200.66 195.49 201.027 195.939 201.027H213.746C214.195 201.027 214.56 200.66 214.56 200.209Z" fill="#6C63FF"/>
<path d="M149.221 183.296C149.67 183.296 150.035 182.929 150.035 182.478C150.035 182.026 149.67 181.659 149.221 181.659H131.413C130.964 181.659 130.599 182.026 130.599 182.478C130.599 182.929 130.964 183.296 131.413 183.296H149.221Z" fill="#6C63FF"/>
<path d="M201.663 182.963H219.47C219.919 182.963 220.285 182.596 220.285 182.145C220.285 181.694 219.919 181.326 219.47 181.326H201.663C201.214 181.326 200.849 181.694 200.849 182.145C200.849 182.596 201.214 182.963 201.663 182.963Z" fill="#6C63FF"/>
<path d="M156.722 183.136H193.641C194.09 183.136 194.455 182.768 194.455 182.317C194.455 181.866 194.09 181.499 193.641 181.499H156.722C156.274 181.499 155.908 181.866 155.908 182.317C155.908 182.768 156.274 183.136 156.722 183.136Z" fill="#6C63FF"/>
<path d="M171.248 207.521H153.441C152.992 207.521 152.627 207.888 152.627 208.339C152.627 208.791 152.992 209.158 153.441 209.158H171.248C171.697 209.158 172.062 208.791 172.062 208.339C172.062 207.888 171.697 207.521 171.248 207.521Z" fill="#6C63FF"/>
<path d="M228.76 165.415V220.867C228.76 225.771 224.791 229.76 219.914 229.76H164.755C159.877 229.76 155.908 225.771 155.908 220.867V165.415C155.908 160.511 159.877 156.521 164.755 156.521H219.914C224.791 156.521 228.76 160.511 228.76 165.415Z" fill="white"/>
<path d="M228.76 165.415V220.867C228.76 225.771 224.791 229.76 219.914 229.76H164.755C159.877 229.76 155.908 225.771 155.908 220.867V165.415C155.908 160.511 159.877 156.521 164.755 156.521H219.914C224.791 156.521 228.76 160.511 228.76 165.415ZM216.492 228.714C222.692 228.714 227.719 223.66 227.719 217.427V192.91C227.719 173.391 211.979 157.568 192.564 157.568H164.755C160.444 157.568 156.949 161.081 156.949 165.415V213.13C156.949 221.737 163.889 228.714 172.45 228.714L216.492 228.714Z" fill="#1AAC28"/>
<path d="M199.677 179.169H181.869C181.42 179.169 181.055 178.802 181.055 178.35C181.055 177.899 181.42 177.532 181.869 177.532H199.677C200.126 177.532 200.491 177.899 200.491 178.35C200.491 178.802 200.126 179.169 199.677 179.169Z" fill="#6C63FF"/>
<path d="M199.677 196.623H181.869C181.42 196.623 181.055 196.255 181.055 195.804C181.055 195.353 181.42 194.986 181.869 194.986H199.677C200.126 194.986 200.491 195.353 200.491 195.804C200.491 196.255 200.126 196.623 199.677 196.623Z" fill="#6C63FF"/>
<path d="M190.83 220.687H173.023C172.574 220.687 172.209 220.32 172.209 219.868C172.209 219.417 172.574 219.05 173.023 219.05H190.83C191.279 219.05 191.644 219.417 191.644 219.868C191.644 220.32 191.279 220.687 190.83 220.687Z" fill="#6C63FF"/>
<path d="M209.232 187.902H172.314C171.865 187.902 171.5 187.534 171.5 187.083C171.5 186.632 171.865 186.265 172.314 186.265H209.232C209.681 186.265 210.046 186.632 210.046 187.083C210.046 187.534 209.681 187.902 209.232 187.902Z" fill="#6C63FF"/>
<path d="M218.381 134.687C218.381 117.389 203.838 107.872 187.225 103.365C165.926 97.5867 150.327 109.28 156.069 134.687C157.37 140.445 160.483 147.171 164.336 152.924H194.909C205.122 146.239 218.381 148.114 218.381 134.687Z" fill="#1AAC28"/>
<path d="M186.768 167.388C188.507 164.055 190.712 161.651 193.141 159.82H164.505C171.875 170.404 181.65 177.197 186.768 167.388Z" fill="#1AAC28"/>
<path d="M183.463 116.168C185.302 116.168 186.792 117.667 186.792 119.515V126.208H180.135V119.515C180.135 117.667 181.625 116.168 183.463 116.168ZM188.456 126.208V119.515C188.456 116.743 186.221 114.495 183.463 114.495C180.706 114.495 178.47 116.743 178.47 119.515V126.208C176.632 126.208 175.142 127.706 175.142 129.554V137.92C175.142 139.768 176.632 141.266 178.47 141.266H188.456C190.295 141.266 191.785 139.768 191.785 137.92V129.554C191.785 127.706 190.295 126.208 188.456 126.208ZM178.47 127.881H188.456C189.375 127.881 190.121 128.63 190.121 129.554V137.92C190.121 138.844 189.375 139.593 188.456 139.593H178.47C177.551 139.593 176.806 138.844 176.806 137.92V129.554C176.806 128.63 177.551 127.881 178.47 127.881Z" fill="white"/>
<path d="M135.894 155.132C135.493 158.501 136.897 161.44 139.029 161.697C141.162 161.954 143.216 159.431 143.617 156.062C143.793 154.587 143.623 153.195 143.197 152.074L144.719 137.777L138.031 137.201L137.24 151.357C136.563 152.345 136.07 153.657 135.894 155.132Z" fill="#FFB6B6"/>
<path d="M137.499 69.8385C137.499 69.8385 144.784 67.746 146.346 70.8848C147.907 74.0236 151.549 115.351 151.549 115.351L144.524 148.34L136.459 146.216L140.621 112.736L134.897 87.6251L137.499 69.8385Z" fill="#E6E6E6"/>
<path d="M30.4415 170.196C47.2539 170.196 60.8831 156.495 60.8831 139.593C60.8831 122.691 47.2539 108.99 30.4415 108.99C13.6291 108.99 0 122.691 0 139.593C0 156.495 13.6291 170.196 30.4415 170.196Z" fill="#1AAC28"/>
<path d="M30.4415 125.893C32.592 125.893 34.3352 127.645 34.3352 129.807V137.636H26.5479V129.807C26.5479 127.645 28.2911 125.893 30.4415 125.893ZM36.2821 137.636V129.807C36.2821 126.564 33.6672 123.936 30.4415 123.936C27.2159 123.936 24.601 126.564 24.601 129.807V137.636C22.4506 137.636 20.7073 139.388 20.7073 141.55V151.336C20.7073 153.498 22.4506 155.251 24.601 155.251H36.2821C38.4325 155.251 40.1758 153.498 40.1758 151.336V141.55C40.1758 139.388 38.4325 137.636 36.2821 137.636ZM24.601 139.593H36.2821C37.3573 139.593 38.2289 140.469 38.2289 141.55V151.336C38.2289 152.417 37.3573 153.293 36.2821 153.293H24.601C23.5258 153.293 22.6542 152.417 22.6542 151.336V141.55C22.6542 140.469 23.5258 139.593 24.601 139.593Z" fill="white"/>
</g>
<defs>
<clipPath id="clip0_1_2">
<rect width="294" height="268" fill="white"/>
</clipPath>
</defs>
</svg>
